<svg width="290" height="50" viewBox="0 0 290 50" fill="none" xmlns="http://www.w3.org/2000/svg">
<circle cx="25" cy="25" r="25" fill="url(#paint0_linear_10099_116)"/>
<circle cx="105" cy="25" r="25" fill="url(#paint1_linear_10099_116)"/>
<circle cx="185" cy="25" r="25" fill="url(#paint2_linear_10099_116)"/>
<circle cx="265" cy="25" r="25" fill="url(#paint3_linear_10099_116)"/>
<path d="M115.058 19.9449C114.938 19.5009 114.704 19.0961 114.379 18.771C114.054 18.4459 113.649 18.2119 113.205 18.0924C111.57 17.6499 105 17.6499 105 17.6499C105 17.6499 98.4301 17.6499 96.7951 18.0924C96.3511 18.2119 95.9463 18.4459 95.6212 18.771C95.2961 19.0961 95.0621 19.5009 94.9426 19.9449C94.6373 21.6124 94.4891 23.3048 94.5001 24.9999C94.4891 26.695 94.6373 28.3875 94.9426 30.0549C95.0621 30.4989 95.2961 30.9037 95.6212 31.2288C95.9463 31.5539 96.3511 31.7879 96.7951 31.9074C98.4301 32.3499 105 32.3499 105 32.3499C105 32.3499 111.57 32.3499 113.205 31.9074C113.649 31.7879 114.054 31.5539 114.379 31.2288C114.704 30.9037 114.938 30.4989 115.058 30.0549C115.363 28.3875 115.511 26.695 115.5 24.9999C115.511 23.3048 115.363 21.6124 115.058 19.9449ZM102.9 28.1499V21.8499L108.353 24.9999L102.9 28.1499Z" fill="white"/>
<g clip-path="url(#clip0_10099_116)">
<path fill-rule="evenodd" clip-rule="evenodd" d="M34.3625 27.7577C34.3625 27.7577 36.3029 29.6741 36.7829 30.5609C36.7922 30.5736 36.7995 30.5878 36.8045 30.6029C37.0001 30.9305 37.0481 31.1873 36.9521 31.3769C36.7901 31.6901 36.2417 31.8473 36.0557 31.8605H32.6261C32.3873 31.8605 31.8905 31.7981 31.2857 31.3805C30.8237 31.0577 30.3641 30.5261 29.9189 30.0065C29.2541 29.2349 28.6793 28.5653 28.0973 28.5653C28.0238 28.5651 27.9508 28.5773 27.8813 28.6013C27.4409 28.7405 26.8817 29.3681 26.8817 31.0397C26.8817 31.5629 26.4689 31.8605 26.1797 31.8605H24.6089C24.0737 31.8605 21.2873 31.6733 18.8165 29.0681C15.7889 25.8785 13.0697 19.48 13.0433 19.4236C12.8741 19.0096 13.2293 18.784 13.6133 18.784H17.0765C17.5409 18.784 17.6921 19.0648 17.7977 19.3168C17.9201 19.606 18.3737 20.7628 19.1177 22.0624C20.3225 24.1768 21.0629 25.0373 21.6545 25.0373C21.7657 25.0376 21.8749 25.0086 21.9713 24.9533C22.7441 24.5285 22.6001 21.7684 22.5641 21.1996C22.5641 21.0892 22.5629 19.9672 22.1669 19.4248C21.8837 19.036 21.4013 18.8848 21.1097 18.8296C21.1877 18.7168 21.3533 18.544 21.5657 18.442C22.0949 18.178 23.0513 18.1396 24.0005 18.1396H24.5273C25.5569 18.154 25.8233 18.22 26.1977 18.3148C26.9513 18.4948 26.9657 18.9832 26.8997 20.6464C26.8805 21.1216 26.8601 21.6568 26.8601 22.2868C26.8601 22.4212 26.8541 22.5712 26.8541 22.7236C26.8313 23.5768 26.8013 24.5381 27.4037 24.9329C27.4818 24.9815 27.5721 25.0073 27.6641 25.0072C27.8729 25.0072 28.4981 25.0072 30.1937 22.0972C30.9377 20.812 31.5137 19.2964 31.5533 19.1824C31.5869 19.1188 31.6877 18.94 31.8101 18.868C31.8972 18.8217 31.9947 18.7986 32.0933 18.8008H36.1673C36.6113 18.8008 36.9125 18.868 36.9713 19.036C37.0697 19.3084 36.9521 20.14 35.0921 22.6552C34.7789 23.074 34.5041 23.4365 34.2629 23.7533C32.5769 25.9661 32.5769 26.0777 34.3625 27.7577Z" fill="white"/>
</g>
<path d="M186.397 33.9972V25.8012H189.162L189.573 22.5922H186.397V20.5482C186.397 19.6222 186.655 18.9882 187.984 18.9882H189.668V16.1272C188.849 16.0394 188.025 15.997 187.201 16.0002C184.757 16.0002 183.079 17.4922 183.079 20.2312V22.5862H180.332V25.7952H183.085V33.9972H186.397Z" fill="white"/>
<g clip-path="url(#clip1_10099_116)">
<path d="M269.5 13H260.5C256.359 13 253 16.3585 253 20.5V29.5C253 33.6415 256.359 37 260.5 37H269.5C273.642 37 277 33.6415 277 29.5V20.5C277 16.3585 273.642 13 269.5 13ZM274.75 29.5C274.75 32.395 272.395 34.75 269.5 34.75H260.5C257.605 34.75 255.25 32.395 255.25 29.5V20.5C255.25 17.605 257.605 15.25 260.5 15.25H269.5C272.395 15.25 274.75 17.605 274.75 20.5V29.5Z" fill="white"/>
<path d="M265 19C261.686 19 259 21.6865 259 25C259 28.3135 261.686 31 265 31C268.314 31 271 28.3135 271 25C271 21.6865 268.314 19 265 19ZM265 28.75C262.933 28.75 261.25 27.067 261.25 25C261.25 22.9315 262.933 21.25 265 21.25C267.067 21.25 268.75 22.9315 268.75 25C268.75 27.067 267.067 28.75 265 28.75Z" fill="white"/>
<path d="M271.448 19.35C271.889 19.35 272.247 18.992 272.247 18.5505C272.247 18.1089 271.889 17.751 271.448 17.751C271.006 17.751 270.648 18.1089 270.648 18.5505C270.648 18.992 271.006 19.35 271.448 19.35Z" fill="white"/>
</g>
<defs>
<linearGradient id="paint0_linear_10099_116" x1="5.1105" y1="-5.43152e-06" x2="48.2386" y2="3.21466" gradientUnits="userSpaceOnUse">
<stop stop-color="#C89AFC"/>
<stop offset="1" stop-color="#7C6AFA"/>
</linearGradient>
<linearGradient id="paint1_linear_10099_116" x1="85.1105" y1="-5.43152e-06" x2="128.239" y2="3.21466" gradientUnits="userSpaceOnUse">
<stop stop-color="#C89AFC"/>
<stop offset="1" stop-color="#7C6AFA"/>
</linearGradient>
<linearGradient id="paint2_linear_10099_116" x1="165.11" y1="-5.43152e-06" x2="208.239" y2="3.21466" gradientUnits="userSpaceOnUse">
<stop stop-color="#C89AFC"/>
<stop offset="1" stop-color="#7C6AFA"/>
</linearGradient>
<linearGradient id="paint3_linear_10099_116" x1="245.11" y1="-5.43152e-06" x2="288.239" y2="3.21466" gradientUnits="userSpaceOnUse">
<stop stop-color="#C89AFC"/>
<stop offset="1" stop-color="#7C6AFA"/>
</linearGradient>
<clipPath id="clip0_10099_116">
<rect x="13" y="13" width="24" height="24" fill="white"/>
</clipPath>
<clipPath id="clip1_10099_116">
<rect width="24" height="24" fill="white" transform="translate(253 13)"/>
</clipPath>
</defs>
</svg>
